<svg width="200" height="200" viewBox="0 0 200 200" fill="none" xmlns="http://www.w3.org/2000/svg">
<path d="M47.0848 13.4217L47.475 13.4077C59.2131 13.0756 71.6194 13.2701 83.4109 13.3131C93.3958 13.3497 109.832 11.0596 117.198 18.3462C124.419 25.4915 122.057 42.4589 122.057 52.4118L122.105 107.32C145.191 117.836 119.577 151.098 144.565 156.129C152.909 157.811 160.441 150.281 160.494 141.861C160.553 132.675 160.965 121.373 157.185 112.72C156.539 111.216 152.744 109.244 152.22 108.145C149.061 101.483 152.418 96.5811 146.666 90.248C145.175 87.7166 144.181 83.523 144.41 80.7482C144.833 75.6436 142.336 66.935 146.714 63.5588C148.286 63.425 149.029 63.498 150.386 62.7666C151.985 59.7252 149.788 50.2066 153.048 48.504C155.956 51.0886 155.293 59.3501 155.202 63.0068C159.5 63.1261 164.15 63.0342 168.48 63.0229C168.362 59.4157 167.534 52.2527 170.148 49.5085L171.099 49.7133C173.403 53.2555 172.729 58.7541 172.606 62.9972C174.354 63.0455 175.365 63.1584 177.102 63.4163C185.291 68.4414 174.269 92.539 166.989 96.0453C167.069 100.261 167.502 105.122 164.45 108.359C160.858 112.174 160.767 110.44 161.943 115.788C165.337 124.918 166.711 144.729 160.788 153.237C155.416 160.955 142.176 162.669 134.971 156.704C123.452 147.164 131.577 129.206 126.867 116.966C125.83 114.28 124.206 113.103 122.089 111.374L122.073 165.319C132.405 165.529 132.646 170.683 132.063 179.454C131.502 187.902 116.984 185.752 110.757 185.763C83.3681 185.806 55.8349 185.854 28.4407 185.634C27.0509 185.623 24.5066 185.548 23.4269 184.618C20.3427 182.066 19.7334 177.82 20.0915 174.058C20.8024 166.517 23.3628 165.69 30.1779 165.297C30.6429 125.148 29.8465 84.844 30.1832 44.677C30.3062 30.2854 28.2804 15.3645 47.0848 13.4217ZM34.4274 165.362L107.903 165.389L117.834 165.324L117.845 71.479L117.903 45.6121C117.952 38.0777 119.528 27.1065 114.247 21.5176C109.629 16.6318 104.102 17.5971 97.9391 17.4761C80.5084 17.6718 62.8478 17.2219 45.4332 17.5433C45.1445 17.5498 44.8612 17.5578 44.5726 17.5675C40.8577 19.1535 37.3244 21.0689 35.6567 25.0185C32.61 32.2487 35.1329 146.11 34.4274 165.362ZM126.306 181.533C128.77 178.916 128.861 173.096 126.632 170.269C123.495 168.474 36.9824 169.452 25.9873 169.592C23.7744 172.225 23.1864 178.701 25.8536 181.163C30.365 182.039 51.2968 181.593 57.1071 181.587L126.306 181.533ZM167.095 92.3123C167.967 90.9112 169.143 89.1527 169.902 87.7295C174.226 79.5906 175.621 76.5223 175.514 67.1403C166.545 67.1354 157.378 67.0328 148.425 67.1526C148.473 72.2535 147.724 86.681 150.803 89.9948C153.69 93.0964 160.884 92.4407 164.899 92.3601L167.095 92.3123ZM162.509 105.812C162.985 101.931 163.119 99.8907 163.081 95.9857L154.652 96.0093C154.524 99.587 153.861 103.671 156.068 106.43C158.025 107.586 160.676 106.967 162.509 105.812Z" fill="currentColor"/>
<path d="M65.6878 49.2215C76.4155 49.148 87.5945 48.6671 98.2213 49.6379C101.316 49.9201 103.614 53.7243 103.694 56.7351C104.097 71.8731 104.097 87.1063 103.721 102.245C103.45 112.967 94.1606 110.911 86.2887 110.719C79.6164 110.773 54.6098 111.896 50.5491 109.115C48.8239 106.295 48.3674 102.842 48.2772 99.5823C48.1073 93.0603 47.1465 54.5955 50.1934 51.5485C53.6914 48.0521 61.1759 49.1437 65.6878 49.2215ZM97.9825 106.902C98.4178 106.418 99.3626 105.283 99.3891 104.638C99.9889 90.6821 99.559 76.6043 99.6545 62.6208C99.6757 59.8049 99.3945 57.0966 98.6354 54.3857C96.3688 52.5422 59.8913 53.3744 54.0471 53.342C53.6171 53.8287 52.6829 54.9682 52.651 55.6067C52.0035 67.1934 52.4493 78.9234 52.3273 90.5426C52.2901 93.9889 51.8655 104.432 54.2647 106.597C57.9274 107.304 65.5232 106.936 69.6795 106.929L97.9825 106.902Z" fill="currentColor"/>
<path d="M79.5156 62L81.0909 63.0343C81.9864 65.2259 79.1563 73.5148 78.388 76.601C81.1297 76.5435 85.209 75.9075 87 78.0031C86.2427 81.7734 75.1819 95.2522 72.1196 99L70.7046 98.0846C69.3392 95.048 72.5342 87.3183 73.684 83.724C71.5558 83.7342 66.0337 84.2246 65 82.476C65.9894 78.6509 76.4864 65.7382 79.5156 62Z" fill="currentColor"/>
<path d="M62.6683 121.386C68.0044 120.969 73.5011 121.306 79.0568 121.083C85.2768 120.833 97.2508 120.496 94.631 130.711C94.0256 133.054 92.1023 134.349 90.2218 135.586C82.9464 135.985 72.7404 136.223 65.4703 135.697C57.7395 135.137 54.7393 126.795 62.6683 121.386ZM89.6003 131.495C90.9129 129.114 90.8593 129.929 90.7789 127.684C88.1002 124.026 82.4267 124.982 78.2907 124.996C73.3779 125.012 68.4329 125.121 63.5148 125.173C62.5344 126.953 62.2719 127.161 62.3737 129.102C64.597 132.91 70.9617 131.866 74.8512 131.845C79.7426 131.819 84.7036 131.618 89.6003 131.495Z" fill="currentColor"/>
</svg>
