<svg width="250" height="250" viewBox="0 0 250 250" fill="none" xmlns="http://www.w3.org/2000/svg">
<path d="M178.155 62.1647C180.354 61.7078 183.101 62.1706 184.625 63.9424C185.715 65.1891 186.242 66.8314 186.08 68.4795C185.448 74.6653 176.768 79.5 172.562 82.9688C172.151 95.5653 173.653 108.082 173.407 120.558C173.309 125.582 166.794 131.603 163.458 135.578C153.886 146.983 143.121 157.734 133.542 169.182C128.483 175.138 122.258 182.098 116.156 186.945C113.52 188.504 105.497 188.957 102.989 187.734C94.8223 183.754 88.1457 174.467 81.2625 168.429C79.6081 166.815 77.8232 164.652 75.9582 162.792C69.9191 156.767 62.7138 150.809 57.8164 143.852C55.7273 140.885 55.6825 136.548 56.4738 133.162C56.8101 131.725 57.8212 129.282 58.8022 128.183C67.7525 118.157 77.0639 108.159 86.5376 98.6043C95.7906 89.2729 109.837 71.9493 119.741 64.5904C120.868 63.7534 161.146 62.6982 163.143 63.2653L163.468 63.3603C166.364 64.1792 167.737 65.1682 170.321 66.7978C172.636 65.1736 175.653 63.5756 178.155 62.1647ZM118.289 178.754C128.44 165.744 141.976 152.735 152.907 140.101C158.043 134.165 164.262 128.178 168.08 121.267C170.148 117.679 167.798 105.016 167.888 100.527C167.482 92.6627 168.391 83.0336 167.452 75.3668L167.395 74.9147C164.968 76.7543 163.384 78.0351 161.164 80.1115C161.366 83.7746 161.568 87.0547 160.65 90.6779C153.995 95.6807 150.672 96.6424 143.654 91.4472C140.453 84.1034 140.819 81.0683 146.53 75.1695C151.425 74.3101 153.946 74.5089 158.769 75.9909C161.116 74.0139 165.27 71.5576 163.27 68.2998C160.82 66.7014 152.708 66.7739 150.185 67.2436L150.298 67.9875C145.118 69.1095 129.528 68.253 122.536 68.9843C115.015 74.6765 108.362 82.5303 101.996 89.4414L78.655 114.557C73.6845 119.934 68.1653 125.152 63.397 130.69C62.11 132.227 61.7245 134.107 61.3732 136.004C60.9332 138.384 62.1056 141.727 63.7542 143.53C74.8866 155.701 87.1794 166.893 98.826 178.575C101.466 181.221 103.651 183.145 107.512 183.389C111.721 183.739 115.637 182.029 118.289 178.754ZM178.146 66.9415C174.606 69.3813 170.031 71.5205 173.001 76.082C173.767 76.2087 173.683 76.3217 174.304 76.1039C176.653 74.0992 180.054 71.6467 180.877 68.7207C180.449 66.8685 180.008 66.9196 178.146 66.9415ZM149.161 79.4659C144.356 84.9608 146.46 91.2065 154.099 89.7167C155.337 88.6356 156.084 88.2342 156.435 86.6582C155.745 82.8567 153.271 79.465 149.161 79.4659ZM168.762 107.435C170.603 104.229 170.248 87.6715 168.769 83.927C168.708 87.2774 168.42 105.631 168.762 107.435Z" fill="currentColor"/>
<path d="M126.82 98C129.852 101.258 128.448 101.964 129.948 105.595C131.128 108.449 135.576 110.626 135.452 114.017C135.38 115.985 135.661 116.243 134.528 117.515C131.173 117.275 130.213 112.935 127.241 112.176C124.248 111.412 118.857 111.634 117.15 114.665C113.015 121.929 121.767 123.704 126.561 126.117C133.165 129.442 132.282 137.19 128.797 142.572C124.421 145.072 122.126 146.354 117.482 148.323C116.774 151.477 116.539 154.203 113.113 155.092C111.814 154.676 111.714 154.693 110.934 153.647C110.657 151.414 110.913 149.063 111.06 146.807L105.012 142.965C104.216 140.5 102.244 135.26 106.102 134.637C107.299 135.337 110.166 139.547 111.683 141.246C112.632 141.431 113.587 141.586 114.546 141.71C123.577 142.915 131.118 133.905 121.525 129.659C111.016 125.007 108.621 128.044 110.649 113.463C115.386 107.48 116.889 109.145 122.379 104.86C124.306 103.356 121.828 101.961 126.82 98Z" fill="currentColor"/>
<path d="M168.765 83.9297C170.244 87.6741 170.598 104.231 168.758 107.438C168.416 105.634 168.704 87.28 168.765 83.9297Z" fill="currentColor"/>
<path d="M175.563 142.844C181.235 144.072 188.199 146.605 193.387 147.041C193.358 148.629 193.496 150.618 192.873 151.995C187.273 151.656 181.531 149.199 175.764 147.983C174.975 147.305 174.293 146.604 173.559 145.871C173.708 144.372 174.353 144.152 175.563 142.844Z" fill="currentColor"/>
<path d="M191.867 120.594C192.584 120.808 193.268 121.144 193.958 121.446C194.751 122.895 194.665 122.257 194.394 123.796C192.52 126.82 184.18 130.148 180.703 131.12C179.499 131.05 178.834 131.148 177.873 130.432L177.715 129.322C179.145 126.608 188.927 121.52 191.867 120.594Z" fill="currentColor"/>
</svg>
