<svg width="200" height="200" viewBox="0 0 200 200" fill="none" xmlns="http://www.w3.org/2000/svg">
<path d="M27.9677 85.0965C29.7317 84.9011 47.7084 85.1959 49.4627 85.6494C57.2985 87.6756 54.7305 89.2175 64.1842 88.7986C64.7787 89.3393 67.566 92.0027 68.1557 92.0052C79.3052 92.05 90.9031 91.9623 102.043 92.2395C102.905 92.8017 103.748 93.3888 104.582 93.9997C108.051 96.5486 109.508 102.262 106.702 104.515C100.274 109.677 80.6259 107.349 72.7169 107.64C68.5846 107.838 56.3434 111.397 53.3319 113.956C46.1636 115.024 38.1572 114.739 30.8915 114.619C28.4696 114.578 25.653 114.68 25.0049 111.984L25.6968 111.116C29.5806 109.244 45.0574 110.433 51.0464 110.004C51.407 104.622 51.178 95.6551 51.2462 89.8908C45.9395 88.6534 26.7153 90.4062 25 87.3088C25.7115 85.7512 26.1013 85.9817 27.9677 85.0965ZM103.032 102.077C103.295 100.025 103.627 99.9413 102.876 98.188C99.3578 96.1189 74.3347 97.0767 68.8477 97.1922C68.7307 98.9051 68.3945 100.576 69.1352 102.032C70.6653 102.722 100.245 102.598 103.032 102.077ZM62.1911 106.568C64.2524 103.441 65.2465 96.1944 61.4114 93.6275C60.5927 93.0804 58.0003 92.8076 56.8989 92.6892C55.9828 96.4823 55.1641 103.042 57.2011 106.513C59.1016 107.554 60.0615 107.254 62.1911 106.568Z" fill="currentColor"/>
<path d="M127.492 97.3802C135.499 97.1605 143.944 97.3081 151.999 97.3373C152.555 101.336 152.369 102.39 147.594 102.168C145.425 102.067 143.159 102.028 140.976 102.016C134.037 102.071 126.416 102.404 119.491 101.727C117.649 101.547 116.377 100.98 116.436 99.0132C118.375 97.0689 124.51 97.4431 127.492 97.3802Z" fill="currentColor"/>
<path d="M108.238 110.395C118.642 114.051 130.498 122.752 140.332 128.104C141.419 128.696 141.219 130.679 141.292 131.953C138.198 131.534 136.629 130.782 133.919 129.265C125.518 124.556 116.756 120.143 109.12 114.234C108.19 113.515 108.297 111.522 108.238 110.395Z" fill="currentColor"/>
<path d="M137.382 68.4676C139.024 68.3989 139.779 68.0983 140.92 69.2091L140.851 70.3735C138.858 73.6497 116.389 85.5915 111.418 88.2729C110.034 88.6982 109.966 88.7377 108.548 88.6373L108.07 87.7853C109.289 82.8574 131.471 72.2179 137.382 68.4676Z" fill="currentColor"/>
<path d="M140.126 81.5234L140.998 81.9975C141.076 83.6052 141.276 84.5766 140.613 86.0313C139.225 86.9487 116.536 94.2023 114.353 94.5316L113.705 94.1726C111.487 89.4065 135.906 83.4916 140.126 81.5234Z" fill="currentColor"/>
<path d="M112.93 104.84C116.511 104.931 135.312 111.813 139.844 113.923C141.111 114.515 141.232 116.104 141.5 117.355C136.252 117.814 121.955 111.987 116.619 109.632C113.992 108.473 113.758 107.365 112.93 104.84Z" fill="currentColor"/>
<path d="M165.614 122.168C167.529 123.319 167.914 122.312 169.888 123.854C170.132 125.267 169.654 125.867 169.025 127.245L166.209 127.396C164.591 126.524 165.103 127.029 164.191 125.533C164.42 123.179 164.065 124.077 165.614 122.168Z" fill="currentColor"/>
<path d="M165.773 71.1055C167.473 71.7461 168.677 72.2036 169.7 73.6963C169.929 75.6065 170.066 74.8431 169.159 76.5721C167.044 77.2162 166.367 77.5689 164.91 75.7917C164.632 73.9516 165.183 72.8861 165.773 71.1055Z" fill="currentColor"/>
<path d="M173.032 96.9648C176.272 97.833 176.579 101.039 173.777 102.346L171.321 101.787C170.244 100.581 170.59 101.268 170.312 99.6224C171.531 97.5149 170.839 98.2335 173.032 96.9648Z" fill="currentColor"/>
<path d="M160.305 84.2539L161.572 84.4936C162.605 86.0297 163.146 86.9962 162.61 88.8285L161.528 89.2826C159.881 88.9079 159.297 88.8256 157.791 88.1153L157.645 87.3996C158.517 86.3371 159.399 85.2882 160.305 84.2539Z" fill="currentColor"/>
<path d="M149.141 78.3555C150.559 78.4281 150.652 78.3891 151.729 79.2251C152.528 80.7368 152.109 82.3723 151.923 84.1675C149.56 83.5591 149.643 83.6497 148.434 81.8525C148.239 80.1191 148.332 79.9149 149.141 78.3555Z" fill="currentColor"/>
<path d="M162.102 109.988C162.365 110.159 162.613 110.682 162.808 111.005C162.72 112.837 162.837 113.177 161.838 114.606L160.917 114.597L160.44 113.706C159.363 112.871 158.096 112.15 157.75 110.904C158.905 110.037 160.567 110.114 162.102 109.988Z" fill="currentColor"/>
<path d="M154.038 68C155.135 68.189 155.232 68.1311 156.178 68.7722C157.147 70.6722 157.508 72.0704 155.793 73.5349C154.857 73.3741 153.921 73.2055 152.991 73.0292L152.703 72.2122C153.751 70.5139 153.858 69.9887 154.038 68Z" fill="currentColor"/>
<path d="M150.172 115.098C151.03 115.361 150.786 115.341 151.527 116.055C152.219 118.016 152.448 119.149 150.742 120.425L148.164 119.529L147.77 118.667C148.539 117.365 149.3 116.321 150.172 115.098Z" fill="currentColor"/>
<path d="M155.207 125.258C156.732 126.298 157.186 128.596 156.489 130.257L155.568 130.616L153.044 129.532L152.844 128.814C153.965 127.516 154.203 127.163 155.012 125.635L155.207 125.258Z" fill="currentColor"/>
<path d="M159.747 96.7852C162.169 97.3737 161.53 96.8602 162.651 98.4688C162.758 100.116 162.754 100.4 162.403 102.009C161.37 101.879 160.902 101.739 159.932 101.465C159.113 99.8164 159.562 98.8825 159.747 96.7852Z" fill="currentColor"/>
</svg>
