<svg width="200" height="200" viewBox="0 0 200 200" fill="none" xmlns="http://www.w3.org/2000/svg">
<path d="M112.433 27.0367C120.794 26.8048 122.182 27.6574 130.188 30.0109C133.61 31.0174 140.173 29.3021 144.136 30.7183C147.685 31.9869 148.315 32.8078 150.826 35.4133C150.913 37.4521 150.877 39.7467 150.889 41.8094C149.538 43.3255 147.599 45.1145 146.107 46.5668C140.454 47.0983 132.722 46.8722 126.905 46.8459L126.702 54.6028C135.183 56.5895 134.791 61.4588 134.822 68.7237C156.547 78.7099 153.721 89.4132 154.074 110.51C154.138 114.294 154.938 124.486 152.597 127.006C149.416 128.285 119.006 128.675 118.271 126.44C114.822 115.955 120.777 110.391 113.149 99.508C107.294 98.464 96.8657 98.0831 90.8743 98.638C86.4077 99.0511 84.5501 101.003 82.1009 104.367C79.3812 108.697 80.1366 113.32 83.9902 116.65C84.4648 121.426 86.4452 132.501 79.3983 132.565C72.8548 132.624 51.4158 134.147 46.5852 131.2C44.7724 128.674 44.9351 123.36 45.0857 120.364C45.363 114.842 46.4536 116.22 48.5894 114.037C50.7526 111.825 49.5368 100.103 49.9466 96.1022C50.8018 87.7514 54.4887 82.1474 60.4714 76.6418C70.6156 67.3069 86.7858 68.6092 99.7082 69.4189C100.011 63.5985 100.128 61.8583 102.283 56.4268L107.478 55.2371L108.044 46.862C102.543 46.2481 94.9424 46.861 88.8428 46.4557C82.5838 39.3614 82.4971 35.5804 90.7471 30.3354C96.2269 29.9734 102.057 30.085 107.542 30.1931L112.433 27.0367ZM54.0984 113.207C62.9333 112.925 67.1372 112.549 75.7089 114.064C76.5125 102.615 75.7065 101.529 84.8961 94.8048C94.3556 94.3547 103.829 94.2831 113.294 94.5905C117.833 98.0689 120.529 100.485 121.399 106.582C121.561 107.773 121.662 108.971 121.703 110.171C121.712 114.326 121.816 118.879 121.709 122.999C130.902 122.978 141.115 123.186 150.219 122.912C151.588 106.802 154.721 75.4779 130.271 73.6417C123.85 73.1594 117.118 73.9969 110.657 73.6827C99.6916 73.8688 86.7123 73.0323 75.9716 73.8054C53.6457 82.335 54.0862 92.1229 54.0984 113.207ZM112.959 50.9324C112.696 52.9546 112.379 53.0053 113.098 54.7606C115.165 56.3084 118.716 55.6687 121.49 55.5352C121.79 53.8369 121.877 53.6377 121.642 51.9647C119.472 50.0311 116.554 50.7248 113.442 50.9041L112.959 50.9324ZM130.121 60.1513C122.713 59.7079 112.993 59.9077 105.453 60.0806C104.577 62.8439 104.197 65.2038 105.043 68.047C106.252 69.2966 107.802 68.8927 109.618 68.9366C116.345 69.0998 123.099 68.7032 129.799 69.5163C130.374 66.3872 130.187 63.3272 130.121 60.1513ZM70.8763 127.996C73.9259 127.991 84.0019 129.017 79.4085 119.625C78.5416 117.852 61.7627 117.888 58.5845 118.265C56.0345 118.423 52.4845 118.242 50.4188 119.217C48.3921 121.588 48.7459 124.191 50.0197 126.947C52.1263 128.575 67.2108 127.995 70.8763 127.996ZM114.254 32.0215L113.771 32.3513C109.524 35.216 101.408 34.9081 96.2283 34.6986C88.2867 34.377 86.7127 41.8689 92.826 42.5085C97.7122 43.0196 105.097 42.3828 110.296 42.491C114.448 46.1619 114.982 46.9979 120.599 46.0713C122.408 44.9819 122.715 44.6477 124.146 43.1828C129.456 42.4014 142.652 43.3207 145.198 41.3622C150.223 31.3434 131.688 35.6037 127.39 34.5773C121.567 33.1868 120.566 31.5831 114.254 32.0215Z" fill="currentColor"/>
<path d="M62.4161 138.789C68.0132 139.386 70.919 146.358 73.3507 150.969C76.1673 156.309 76.5479 161.954 74.4793 167.687C71.305 170.721 70.9532 171.163 66.7068 172.165C62.437 172.316 55.9232 171.392 53.8005 166.912C48.7939 156.347 59.4888 148.615 62.2518 139.351L62.4161 138.789ZM57.2774 159.115C58.1463 166.031 58.7866 166.856 65.8321 167.194C68.1463 166.515 69.0921 166.393 70.7465 164.284C73.9588 160.19 67.7516 147.625 63.7084 146.002C61.6076 151.283 59.2783 154.353 57.2774 159.115Z" fill="currentColor"/>
</svg>
